<?xml version="1.0" encoding="utf-8"?>
<!-- Generator: Adobe Illustrator 23.0.3, SVG Export Plug-In . SVG Version: 6.00 Build 0)  -->
<svg version="1.1" id="Layer_1" xmlns="http://www.w3.org/2000/svg" xmlns:xlink="http://www.w3.org/1999/xlink" x="0px" y="0px" viewBox="0 0 120 42" style="enable-background:new 0 0 120 42;" xml:space="preserve">
  <style type="text/css">
  .st0 {
    fill: #FFFFFF;
  }

  .st1 {
    fill: #EE3643;
  }

  .st2 {
    fill: #32425C;
  }

  </style>
  <view id="search-view" viewBox="0 0 40 42" />
  <view id="bookmark-view" viewBox="40 0 40 42" />
  <view id="cart-view" viewBox="80 0 40 42" />
  <view id="search-red-view" viewBox="120 0 40 42" />
  <view id="login-view" viewBox="160 0 40 42" />
  <view id="phone-view" viewBox="200 0 40 42" />
  <view id="user-view" viewBox="240 0 40 42" />
  <view id="logout-view" viewBox="280 0 40 42" />
  <view id="icon1-view" viewBox="0 42 40 42" />
  <view id="icon2-view" viewBox="40 42 40 42" />
  <view id="icon3-view" viewBox="80 42 40 42" />
  <view id="icon4-view" viewBox="120 42 40 42" />
  <view id="icon5-view" viewBox="160 42 40 42" />
  <view id="arrow-left-view" viewBox="200 42 40 42" />
  <view id="arrow-right-view" viewBox="240 42 40 42" />
  <g>
    <path class="st0" d="M29,28.09l-3.54-3.54C26.42,23.28,27,21.71,27,20c0-4.14-3.36-7.5-7.5-7.5c-4.14,0-7.5,3.36-7.5,7.5
    c0,4.14,3.36,7.5,7.5,7.5c1.71,0,3.28-0.58,4.54-1.54l3.54,3.54L29,28.09z M14,20c0-3.03,2.47-5.5,5.5-5.5c3.03,0,5.5,2.47,5.5,5.5
    c0,3.03-2.47,5.5-5.5,5.5C16.47,25.5,14,23.03,14,20z" />
  </g>
  <g>
    <path class="st1" d="M149,28.09l-3.54-3.54c0.96-1.26,1.54-2.83,1.54-4.54c0-4.14-3.36-7.5-7.5-7.5c-4.14,0-7.5,3.36-7.5,7.5
    c0,4.14,3.36,7.5,7.5,7.5c1.71,0,3.28-0.58,4.54-1.54l3.54,3.54L149,28.09z M134,20c0-3.03,2.47-5.5,5.5-5.5
    c3.03,0,5.5,2.47,5.5,5.5c0,3.03-2.47,5.5-5.5,5.5C136.47,25.5,134,23.03,134,20z" />
  </g>
  <g>
    <circle class="st0" cx="97.5" cy="27" r="1.5" />
    <circle class="st0" cx="105.5" cy="27" r="1.5" />
    <polygon class="st0" points="108,15.5 97.07,15.5 96.65,13.5 93,13.5 93,15.5 95.03,15.5 97.02,24.5 108,24.5 108,22.5
    102.44,22.5 108,20.45   " />
  </g>
  <path class="st0" d="M67.5,28.21c0,0.55-0.37,0.74-0.82,0.43l-5.36-3.76c-0.45-0.32-1.19-0.32-1.64,0l-5.36,3.76
  c-0.45,0.32-0.82,0.12-0.82-0.43v-14c0-0.55,0.45-1,1-1h12c0.55,0,1,0.45,1,1V28.21z" />
  <g>
    <g>
      <polygon class="st2" points="185.37,21 176.49,12.5 176.49,18.5 170.49,18.5 170.49,23.5 176.49,23.5 176.49,29.5    " />
    </g>
    <path class="st2" d="M187.48,27.51h-5.03v1.99h5.03c2.18,0,3-1.81,3.03-3.03V15.53c-0.03-1.22-0.85-3.03-3.03-3.03h-5.03v1.99h5.03
    c0.84,0,0.99,0.68,1.01,1.06v10.9C188.47,26.83,188.32,27.51,187.48,27.51z" />
  </g>
  <g id="UrwUhy_1_">
    <g>
      <path class="st2" d="M226.34,30.48c-0.31,0-0.63,0-0.94,0c-4.13-0.49-7.16-2.41-9.36-4.86c-2.21-2.46-3.95-5.63-4.29-9.89
      c0-0.38,0-0.76,0-1.14c0.08-0.77,0.46-1.3,0.9-1.76c0.55-0.56,1.37-1.28,2.13-1.31c0.55-0.02,1.5,0.38,1.88,0.9
      c0.33,0.45,0.5,1.34,0.66,2c0.15,0.67,0.5,1.64,0.41,2.29c-0.15,1.01-1.49,1.43-1.88,2.17c1.31,3.14,3.44,5.44,6.29,7.03
      c0.72-0.39,1.35-1.57,2.33-1.59c0.36-0.01,0.82,0.18,1.18,0.29c0.4,0.12,0.75,0.27,1.1,0.41c0.6,0.22,1.65,0.52,2,1.02
      c0.36,0.51,0.57,1.36,0.49,1.88C229.07,28.95,227.36,30.1,226.34,30.48z" />
    </g>
  </g>
  <g>
    <path class="st2" d="M268.38,26.17c-2.14-0.74-4.26-1.67-5.21-2.39c-0.66-0.5-0.77-1.62-0.52-2.42c1.12-0.9,1.86-2.48,1.86-4.28
    c0-2.81-1.8-5.08-4.02-5.08s-4.02,2.28-4.02,5.08c0,1.8,0.75,3.37,1.86,4.28c0.25,0.8,0.14,1.92-0.52,2.42
    c-0.95,0.72-3.06,1.65-5.21,2.39S250.5,30,250.5,30h20C270.5,30,270.52,26.9,268.38,26.17z" />
  </g>
  <g>
    <g>
      <polygon class="st2" points="310.44,21 301.56,12.5 301.56,18.5 295.56,18.5 295.56,23.5 301.56,23.5 301.56,29.5    " />
      <path class="st2" d="M292.56,26.44V15.56c0.02-0.38,0.17-1.06,1-1.06h5v-2h-4.99c-2.16,0-2.98,1.81-3.01,3.03v10.95
      c0.02,1.22,0.85,3.03,3.01,3.03h4.99v-2h-5C292.73,27.5,292.58,26.82,292.56,26.44z" />
    </g>
  </g>
  <g>
    <g>
      <path class="st0" d="M25.69,62.32v3.53c0,0,0.03,0.9-0.92,0.9c-1,0-1.02-0.9-1.02-0.9s0-2,0-2.08c0-0.08-0.11-0.62-0.75-0.62
      c-0.85,0-0.87,0.61-0.87,0.61V70c0,0,0.01,0.61-0.8,0.61c-0.82,0-0.82-0.65-0.82-0.65v-4.51c0,0,0-0.98-1.27-0.98
      c-1.35,0-1.33,1.04-1.33,1.04v1.2c0,0-0.04,0.92-1.47,0.92s-1.45-1.41-1.45-1.41v-4.05c-0.58-0.32-1.62-1.08-1.62-1.08v9.53
      c0,0,0.97,2.92,7.14,2.92s7.14-2.82,7.14-2.82v-9.61C26.7,62.02,25.69,62.32,25.69,62.32z" />
      <path class="st0" d="M20.5,52.45c-6.59,0-7.14,6.45-7.14,6.45v0.99c2.74,2.03,7.14,1.97,7.14,1.97s4.4,0.06,7.14-1.97V58.9
      C27.64,58.9,27.09,52.45,20.5,52.45z M20.5,60.56c-3.82,0-4.65-0.77-4.65-0.77c2.03-0.93,4.65-0.89,4.65-0.89s2.62-0.04,4.65,0.89
      C25.15,59.79,24.32,60.56,20.5,60.56z M20.5,56.55c-3.1,0-5.74,0.95-5.74,0.95c1.48-4.2,5.74-4.06,5.74-4.06s4.26-0.14,5.74,4.06
      C26.24,57.5,23.6,56.55,20.5,56.55z" />
    </g>
  </g>
  <g>
    <g>
    </g>
    <g>
      <g>
        <path class="st0" d="M170,72.08c0,0,0,0.66,0.61,0.66c0.61,0,8.8,0,8.8,0s0.65-0.06,0.65-0.64c0-0.58,0-3.58,0-3.58H170V72.08z" />
        <path class="st0" d="M192.28,55.86h-4.22c-0.21-0.76-0.69-1.3-1.26-1.3h-2.52v3.9h2.52c0.56,0,1.05-0.54,1.26-1.3h4.22
        c0,0,0.34-0.2,0.34-0.64S192.28,55.86,192.28,55.86z" />
        <path class="st0" d="M169.06,53.26c-0.63,0-0.68,0.65-0.68,0.65s0,3.91,0,4.87s0.94,0.97,0.94,0.97s2.3,0,2.93,0
        s0.52,0.43,0.52,0.43s-0.8,4.22-0.89,4.94c-0.09,0.71-0.61,1.17-0.61,1.17s-0.69,0.39-0.98,0.54s-0.28,0.71-0.28,0.71h10.05v0.14
        c0-0.48-2.14-1.03-2.99-1.12c-0.86-0.09-0.68-0.66-0.68-0.66l0.35-2.58h0.99l0.37-2.6h-1.06l0.12-0.97l2.89-0.04
        c1.89-0.19,3.25-1.3,3.25-1.3v-3.84c-1.5-1.04-3.88-1.31-3.88-1.31S169.69,53.26,169.06,53.26z M180.07,54.55L180.07,54.55
        c0,0.19-0.15,0.33-0.32,0.33H170c-0.18,0-0.32-0.14-0.32-0.32v-0.01c0-0.18,0.15-0.32,0.32-0.32h9.74
        C179.92,54.23,180.07,54.38,180.07,54.55z" />
      </g>
    </g>
  </g>
  <g>
    <g>
      <path class="st0" d="M53.08,62.56c-2.89,0-5.24,2.34-5.24,5.24c0,2.89,2.34,5.24,5.24,5.24s5.24-2.34,5.24-5.24
      C58.32,64.91,55.97,62.56,53.08,62.56z M53.08,70.17c-1.31,0-2.37-1.06-2.37-2.37c0-1.31,1.06-2.37,2.37-2.37
      c1.31,0,2.37,1.06,2.37,2.37C55.45,69.11,54.39,70.17,53.08,70.17z" />
      <path class="st0" d="M67.6,67.8c-1.45,0-2.62,1.17-2.62,2.62c0,1.45,1.17,2.62,2.62,2.62c1.45,0,2.62-1.17,2.62-2.62
      C70.22,68.97,69.05,67.8,67.6,67.8z M67.6,72.06c-0.91,0-1.64-0.74-1.64-1.64s0.74-1.64,1.64-1.64c0.91,0,1.64,0.74,1.64,1.64
      C69.25,71.32,68.51,72.06,67.6,72.06z" />
      <path class="st0" d="M73.14,69.09c0,0-0.66-4.9-0.8-5.97c-0.18-1.34-1.18-1.52-1.18-1.52l-1.89-0.22v-3.93H68.3v1.95H67v1.72
      l-3.84-0.45c0,0-3.17-6.51-3.43-7.09c-0.26-0.59-1.01-0.61-1.01-0.61s-7.26,0.77-8.04,0.97c-0.77,0.2-1.12,1.03-1.12,1.03
      c-0.75,2.07-0.75,5.61-0.74,6.57c1.94-1.3,4.51-1.74,7.16-0.75c1.69,0.63,3.59,2.58,4.2,4.27c0.64,1.78,0.63,3.53,0.15,5.06h3.3
      c0.13-2.08,1.85-3.72,3.96-3.72s3.83,1.65,3.96,3.72h0.63C73.38,70.11,73.14,69.09,73.14,69.09z M55.31,59.4h-2.27v-4.55h2.27
      V59.4z M58.56,59.4h-2.27v-4.55h2.27V59.4z M65.05,64.59h-1.3v-2.27h1.3V64.59z M67.32,64.59h-1.3v-2.27h1.3V64.59z M69.6,64.59
      h-1.3v-2.27h1.3V64.59z" />
    </g>
  </g>
  <g>
    <g>
      <path class="st0" d="M109.87,57.96c-0.19-0.25-0.48-0.39-0.78-0.39H96.5l-0.76-2.27h-3.79c-0.48,0-0.92,0.32-1.01,0.79
      c-0.11,0.62,0.36,1.16,0.96,1.16h2.43l4.35,12.99h8.14c0.48,0,0.92-0.32,1.01-0.79c0.11-0.62-0.36-1.16-0.96-1.16h-6.78
      l-0.54-1.62h7.49c0.43,0,0.82-0.29,0.94-0.71l2.05-7.13C110.11,58.53,110.05,58.21,109.87,57.96z M107.53,61.14h-1.6v-1.62h2.07
      L107.53,61.14z M101.7,61.14v-1.62h2.27v1.62L101.7,61.14L101.7,61.14z M103.98,63.09v1.62h-2.27v-1.62H103.98z M99.76,59.52v1.62
      h-2.01l-0.54-1.62H99.76z M98.42,63.09h1.34v1.62h-0.79L98.42,63.09z M105.93,64.71v-1.62h1.03l-0.47,1.62H105.93z" />
      <circle class="st0" cx="99.81" cy="72.72" r="1.88" />
      <circle class="st0" cx="105.48" cy="72.72" r="1.88" />
      <path class="st0" d="M100.44,54.55l2.43,1.77c0.23,0.17,0.56,0.19,0.79,0.01c0.38-0.29,0.35-0.84-0.01-1.1l-0.77-0.56l3.06-1.65
      l1.5,3.9h1.41l-1.96-5.09c-0.07-0.18-0.21-0.32-0.38-0.38c-0.17-0.07-0.37-0.05-0.53,0.04l-4.3,2.32l-0.98-0.71
      c-0.28-0.21-0.67-0.15-0.89,0.13l-2.75,3.51c-0.05,0.06-0.1,0.13-0.13,0.2h1.66L100.44,54.55z" />
    </g>
  </g>
  <g>
    <polygon class="st0" points="223.38,56.5 224.06,57.18 218.28,62.99 224.08,68.82 223.4,69.5 216.92,62.99   " />
  </g>
  <g>
    <g>
    </g>
    <g>
      <polygon class="st0" points="257.62,56.5 256.94,57.18 262.72,62.99 256.92,68.82 257.6,69.5 264.08,62.99     " />
    </g>
  </g>
  <g>
    <circle class="st0" cx="136.27" cy="70.87" r="2.44" />
    <circle class="st0" cx="147.31" cy="70.87" r="2.44" />
    <path class="st0" d="M148.68,52.7c0,0-16.23,0-17.27,0c-1.04,0-0.97,1.01-0.97,1.01v1.58h-1.47c-0.62,0.15-1.13,0.65-1.13,1.28
    s0.5,1.13,1.13,1.13l9.12,0.6l0.06,0.01c-0.25,1.04-2.9,1.24-2.9,1.24l-2.7-0.03h-2.94c-0.61,0.17-1.1,0.66-1.1,1.26
    c0,0.61,0.49,1.1,1.1,1.1l7.68,0.41c-0.26,1.02-2.04,1.22-2.04,1.22l-4.48,0.25c0,0,0,4.51,0,4.92c0,1.04,0.82,1.24,0.82,1.24h0.67
    c0.38-2.03,2.13-3.57,4.25-3.57c2.11,0,3.87,1.54,4.25,3.57h2.37c0.38-2.03,2.13-3.57,4.25-3.57c2.11,0,3.87,1.54,4.25,3.57h0.55
    c0.94,0,1-1.32,1-1.32v-4.95C153.16,57.51,148.68,52.7,148.68,52.7z M144.72,60.49v-4.87h3.27l1.87,4.87H144.72z" />
  </g>
</svg>
